<svg xmlns="http://www.w3.org/2000/svg" viewBox="0 0 19 19"><defs><style>.auta{fill:none;}.auta,.autb{stroke:rgba(0,0,0,0);}.autb{fill:#ccc6c8;}</style></defs><g transform="translate(0.5 0.5)"><path class="auta" d="M0,0H18V18H0Z"/><g transform="translate(1.5 1.5)"><path class="autb" d="M9.5,2A7.5,7.5,0,1,0,17,9.5,7.5,7.5,0,0,0,9.5,2ZM5.8,14.21c.322-.675,2.287-1.335,3.7-1.335s3.382.66,3.7,1.335a5.944,5.944,0,0,1-7.395,0Zm8.468-1.088c-1.073-1.3-3.675-1.747-4.77-1.747s-3.7.443-4.77,1.747a6,6,0,1,1,9.54,0Z" transform="translate(-2 -2)"/><path class="autb" d="M11.125,6A2.625,2.625,0,1,0,13.75,8.625,2.618,2.618,0,0,0,11.125,6Zm0,3.75A1.125,1.125,0,1,1,12.25,8.625,1.123,1.123,0,0,1,11.125,9.75Z" transform="translate(-3.625 -3)"/></g></g></svg>