<svg xmlns="http://www.w3.org/2000/svg" viewBox="0 0 36 36"><defs><style>.ema{fill:none;}.emb{fill:#ccc6c8;}</style></defs><path class="ema" d="M0,0H36V36H0Z"/><g transform="translate(3 2.925)"><path class="emb" d="M17,1.95a15,15,0,0,0,0,30h7.5v-3H17a12.154,12.154,0,0,1-12-12,12.154,12.154,0,0,1,12-12,12.154,12.154,0,0,1,12,12V19.1a2.425,2.425,0,0,1-2.25,2.355,2.425,2.425,0,0,1-2.25-2.355V16.95a7.5,7.5,0,1,0-2.19,5.3,5.555,5.555,0,0,0,4.44,2.2A5.269,5.269,0,0,0,32,19.1V16.95A15.005,15.005,0,0,0,17,1.95Zm0,19.5a4.5,4.5,0,1,1,4.5-4.5A4.494,4.494,0,0,1,17,21.45Z" transform="translate(-2 -1.95)"/></g></svg>