<svg xmlns="http://www.w3.org/2000/svg" viewBox="0 0 36 36"><defs><style>.pha{fill:none;}.phb{fill:#ccc6c8;}</style></defs><path class="pha" d="M0,0H36V36H0Z"/><g transform="translate(4.5 4.5)"><path class="phb" d="M8.31,6a18.469,18.469,0,0,0,.675,3.885l-1.8,1.8A22.238,22.238,0,0,1,6.045,6H8.31M23.1,24.03a19.129,19.129,0,0,0,3.9.675V26.94a23.14,23.14,0,0,1-5.7-1.125l1.8-1.785M9.75,3H4.5A1.5,1.5,0,0,0,3,4.5,25.5,25.5,0,0,0,28.5,30,1.5,1.5,0,0,0,30,28.5V23.265a1.5,1.5,0,0,0-1.5-1.5,17.11,17.11,0,0,1-5.355-.855,1.259,1.259,0,0,0-.465-.075,1.537,1.537,0,0,0-1.065.435l-3.3,3.3A22.723,22.723,0,0,1,8.43,14.685l3.3-3.3a1.505,1.505,0,0,0,.375-1.53A17.041,17.041,0,0,1,11.25,4.5,1.5,1.5,0,0,0,9.75,3Z" transform="translate(-3 -3)"/></g></svg>